<svg xmlns:xlink="http://www.w3.org/1999/xlink" xmlns:ev="http://www.w3.org/2001/xml-events" width="2255" viewBox="0 0 2255 1597" height="1597" xmlns="http://www.w3.org/2000/svg"><style type="text/css"><![CDATA[
.st9 {fill:#000000;font-family:宋体;font-size:20pt}
.st8 {fill:#000000;font-weight:bold}
.st4 {fill:#303030;font-family:宋体;font-size:14pt}
.st3 {fill:#303030;font-family:宋体;font-size:16pt}
.st7 {fill:#303030;font-family:宋体;font-size:18pt;font-weight:bold}
.st1 {fill:#303030;font-family:宋体;font-size:18pt}
.st5 {fill:#ffc000;font-weight:bold}
.st6 {fill:#ffffff;font-family:Arial;font-size:16pt}
.st2 {font-weight:bold}
]]></style><defs><linearGradient y1="0%" id="lg1" x1="0%" x2="0%" y2="100%"><stop offset="0" stop-color="#fbfbfb"/><stop offset="1" stop-color="#efefef"/></linearGradient><radialGradient id="rg1" cy="0" cx="0" fy="0" fx="0" r="345.8" gradientUnits="userSpaceOnUse"><stop stop-opacity="0.49" offset="0" stop-color="#ffffff"/><stop stop-opacity="0.15" offset="0.85" stop-color="#ffffff"/><stop stop-opacity="0.15" offset="1" stop-color="#ffffff"/></radialGradient><linearGradient y1="0%" id="lg2" x1="0%" x2="0%" y2="100%"><stop stop-opacity="0.8" offset="0" stop-color="#ffffff"/><stop stop-opacity="0" offset="1" stop-color="#ffffff"/></linearGradient><linearGradient y1="0%" id="lg3" x1="0%" x2="0%" y2="100%"><stop stop-opacity="0.09" offset="0" stop-color="#ffffff"/><stop stop-opacity="0.8" offset="1" stop-color="#ffffff"/></linearGradient></defs><g id="page1" transform="translate(5,5)"><rect stroke="#808080" width="2245" y="0" x="0" height="1587" fill="#ffffff"/><g transform="translate(34,18)"><g id="shape1"><path d="M337,84.5L337,2L2,2L2,84.5L337,84.5z" fill-opacity="0.08" fill="#000000"/><path stroke="#6d6d6d" d="M335,82.5L335,0L0,0L0,82.5L335,82.5z" fill="#ff0000"/></g><text class="st1"><tspan y="50.8" x="108">Dispatcher</tspan></text></g><g transform="translate(34,235)"><g id="shape2"><path d="M711,58L711,2L2,2L2,58L711,58z" fill-opacity="0.08" fill="#000000"/><path stroke="#6d6d6d" d="M709,56L709,0L0,0L0,56L709,56z" fill="url(#lg1)"/></g><text class="st1"><tspan y="24" x="122" class="st2">HandlerExecutionChain</tspan><tspan> mappedHandler = </tspan><tspan y="51" x="181">getHandler(processedRequest);</tspan></text></g><g transform="translate(913,153)"><g id="shape3"><path d="M554,60L554,2L2,2L2,60L554,60z" fill-opacity="0.08" fill="#000000"/><path stroke="#6d6d6d" d="M552,58L552,0L0,0L0,58L552,58z" fill="#ff0000"/></g><text class="st3"><tspan y="37" x="34">HandlerMapping(RequestMappingHandlerMapping)</tspan></text></g><g transform="translate(913,271)"><g id="shape4"><path d="M1003,60L1003,2L2,2L2,60L1003,60z" fill-opacity="0.08" fill="#000000"/><path stroke="#6d6d6d" d="M1001,58L1001,0L0,0L0,58L1001,58z" fill="url(#lg1)"/></g><text class="st3"><tspan y="37" x="143">HandlerMethod handler = lookupHandlerMethod(lookupPath, request);</tspan></text></g><g id="shape5" transform="translate(1413.5,329)"><path stroke="#6d6d6d" d="M0,0L0,55.6" fill="none"/><path stroke="#6d6d6d" d="M0,60L3,54.8C2.1,55.3,1.1,55.6,0,55.6C-1.1,55.6,-2.1,55.3,-3,54.8L0,60" stroke-width="1" stroke-linecap="round" fill="#6d6d6d"/></g><g transform="translate(913,389)"><g id="shape6"><path d="M1003,60L1003,2L2,2L2,60L1003,60z" fill-opacity="0.08" fill="#000000"/><path stroke="#6d6d6d" d="M1001,58L1001,0L0,0L0,58L1001,58z" fill="url(#lg1)"/></g><text class="st3"><tspan y="25" x="50">HandlerExecutionChain executionChain = getHandlerExecutionChain(handler, request);</tspan><tspan y="49" x="78">遍历HandlerMapping中的HandlerInterceptor，并组合为chain，区分MappedInterceptor</tspan></text></g><g transform="translate(898.52,144)"><g id="shape7"><path stroke="#000000" stroke-opacity="0.08" stroke-width="4"/><path stroke="#ffc000" d="M1034.5,322L1034.5,0L0,0L0,322L1034.5,322z" stroke-width="4" fill="none"/></g></g><g id="shape8" transform="translate(771,245)"><path d="M2,17.1L102.7,17.1L93.3,6.3L98,2L116,20L98,38L93.3,33.7L102.7,22.9L2,22.9L2,17.1z" fill-opacity="0.08" fill="#000000"/><path stroke="#ffc000" d="M0,15.1L100.7,15.1L91.3,4.3L96,0L114,18L96,36L91.3,31.7L100.7,20.9L0,20.9L0,15.1z" fill="#ffc000"/></g><g id="shape9" transform="translate(388.5,291)"><path stroke="#6d6d6d" d="M0,0L0,274.6" fill="none"/><path stroke="#6d6d6d" d="M0,279L3,273.8C2.1,274.3,1.1,274.6,0,274.6C-1.1,274.6,-2.1,274.3,-3,273.8L0,279" stroke-width="1" stroke-linecap="round" fill="#6d6d6d"/></g><g transform="translate(34,570)"><g id="shape10"><path d="M711,58L711,2L2,2L2,58L711,58z" fill-opacity="0.08" fill="#000000"/><path stroke="#6d6d6d" d="M709,56L709,0L0,0L0,56L709,56z" fill="url(#lg1)"/></g><text class="st1"><tspan y="24" x="241">HandlerAdapter ha = </tspan><tspan y="51" x="79">getHandlerAdapter(mappedHandler.getHandler());</tspan></text></g><g transform="translate(898.52,518)"><g id="shape11"><path d="M2,175.3L2,2L615,2L615,175.3C515.5,142.3,408,142.3,308.5,175.3C209,208.2,101.5,208.2,2,175.3z" fill-opacity="0.08" fill="#000000"/><path stroke="#6d6d6d" d="M0,173.3L0,0L613,0L613,173.3C513.5,140.3,406,140.3,306.5,173.3C207,206.2,99.5,206.2,0,173.3z" fill="url(#lg1)"/></g><text class="st3"><tspan y="59" x="8">这里较简单，因为HandlerAdapter总共就4个：</tspan><tspan y="83" x="8">RequestMappingHandlerAdapter</tspan><tspan y="107" x="8">HandlerFunctionAdapter</tspan><tspan y="131" x="8">HttpRequestHandlerAdapter</tspan><tspan y="155" x="8">SimpleControllerHandlerAdapter</tspan></text></g><g id="shape12" transform="translate(388.5,626)"><path stroke="#6d6d6d" d="M0,0L0,210.1" fill="none"/><path stroke="#6d6d6d" d="M0,214.5L3,209.3C2.1,209.8,1.1,210.1,0,210.1C-1.1,210.1,-2.1,209.8,-3,209.3L0,214.5" stroke-width="1" stroke-linecap="round" fill="#6d6d6d"/></g><g transform="translate(34,840.5)"><g id="shape13"><path d="M711,65L711,2L2,2L2,65L711,65z" fill-opacity="0.08" fill="#000000"/><path stroke="#6d6d6d" d="M709,63L709,0L0,0L0,63L709,63z" fill="url(#lg1)"/></g><text class="st1"><tspan y="27.5" x="25">ModelAndView mv = ha.handle(processedRequest, response, </tspan><tspan y="54.5" x="187">mappedHandler.getHandler());</tspan></text></g><g id="shape14" transform="translate(388.5,903.5)"><path stroke="#6d6d6d" d="M0,0L0,112.6" fill="none"/><path stroke="#6d6d6d" d="M0,117L3,111.8C2.1,112.3,1.1,112.6,0,112.6C-1.1,112.6,-2.1,112.3,-3,111.8L0,117" stroke-width="1" stroke-linecap="round" fill="#6d6d6d"/></g><g transform="translate(34,1020.5)"><g id="shape15"><path d="M711,65L711,2L2,2L2,65L711,65z" fill-opacity="0.08" fill="#000000"/><path stroke="#6d6d6d" d="M709,63L709,0L0,0L0,63L709,63z" fill="url(#lg1)"/></g><text class="st3"><tspan y="39.5" x="75">applyDefaultViewName(processedRequest, mv);		</tspan></text></g><g id="shape16" transform="translate(388.5,1083.5)"><path stroke="#6d6d6d" d="M0,0L0,352.1" fill="none"/><path stroke="#6d6d6d" d="M0,356.5L3,351.3C2.1,351.8,1.1,352.1,0,352.1C-1.1,352.1,-2.1,351.8,-3,351.3L0,356.5" stroke-width="1" stroke-linecap="round" fill="#6d6d6d"/></g><g transform="translate(34,1440)"><g id="shape17"><path d="M711,65L711,2L2,2L2,65L711,65z" fill-opacity="0.08" fill="#000000"/><path stroke="#6d6d6d" d="M709,63L709,0L0,0L0,63L709,63z" fill="url(#lg1)"/></g><text class="st3"><tspan y="27.5" x="85">processDispatchResult(processedRequest, response, </tspan><tspan y="51.5" x="146">mappedHandler, mv, dispatchException);</tspan></text></g><g transform="translate(896.26,711)"><g id="shape18"><path stroke="#000000" stroke-opacity="0.08" stroke-width="4"/><path stroke="#ffc000" d="M672.7,550L672.7,0L0,0L0,550L672.7,550z" stroke-width="4" fill="none"/></g></g><g transform="translate(913,711)"><g id="shape19"><path d="M525,60L525,2L2,2L2,60L525,60z" fill-opacity="0.08" fill="#000000"/><path stroke="#6d6d6d" d="M523,58L523,0L0,0L0,58L523,58z" fill="#ff0000"/></g><text class="st3"><tspan y="37" x="15">HandlerAdapter(RequestMappingHandlerAdapter）</tspan></text></g><g transform="translate(19,18)"><g id="shape20"><path stroke="#000000" stroke-opacity="0.08" stroke-width="4"/><path stroke="#ffc000" d="M794,1560L794,0L0,0L0,1560L794,1560z" stroke-width="4" fill="none"/></g></g><g transform="translate(913,804)"><g id="shape21"><path d="M658,181L658,2L2,2L2,181L658,181z" fill-opacity="0.08" fill="#000000"/><path stroke="#6d6d6d" d="M656,179L656,0L0,0L0,179L656,179z" fill="url(#lg1)"/></g><text class="st4"><tspan y="30.5" x="8" class="st2">ServletInvocableHandlerMethod</tspan><tspan> invocableMethod = </tspan><tspan y="52.5" x="8">createInvocableHandlerMethod(handlerMethod);</tspan><tspan y="74.5" x="8">同时设置：</tspan><tspan y="96.5" x="8">HandlerMethodArgumentResolverComposite</tspan><tspan y="118.5" x="8">HandlerMethodReturnValueHandlerComposite</tspan><tspan y="140.5" x="8">WebDataBinderFactory</tspan><tspan y="162.5" x="8">ParameterNameDiscoverer</tspan></text></g><g transform="translate(913,1050)"><g id="shape22"><path d="M658,58L658,2L2,2L2,58L658,58z" fill-opacity="0.08" fill="#000000"/><path stroke="#6d6d6d" d="M656,56L656,0L0,0L0,56L656,56z" fill="url(#lg1)"/></g><text class="st3"><tspan y="36" x="15">invocableMethod.invokeAndHandle(webRequest, mavContainer)</tspan></text></g><g id="shape23" transform="translate(1241,983)"><path stroke="#6d6d6d" d="M0,0L0,62.6" fill="none"/><path stroke="#6d6d6d" d="M0,67L3,61.8C2.1,62.3,1.1,62.6,0,62.6C-1.1,62.6,-2.1,62.3,-3,61.8L0,67" stroke-width="1" stroke-linecap="round" fill="#6d6d6d"/></g><g transform="translate(1597,617)"><g id="shape24"><path d="M436,51.5L436,2L2,2L2,51.5L436,51.5z" fill-opacity="0.08" fill="#000000"/><path stroke="#6d6d6d" d="M434,49.5L434,0L0,0L0,49.5L434,49.5z" fill="url(#lg1)"/></g><text class="st3"><tspan y="32.8" x="58">ServletInvocableHandlerMethod</tspan></text></g><g transform="translate(1597,617)"><g id="shape25"><path stroke="#000000" stroke-opacity="0.08" stroke-width="4"/><path stroke="#ffc000" d="M634.7,961L634.7,0L0,0L0,961L634.7,961z" stroke-width="4" fill="none"/></g></g><g transform="translate(1597,710)"><g id="shape26"><path d="M625,58L625,2L2,2L2,58L625,58z" fill-opacity="0.08" fill="#000000"/><path stroke="#6d6d6d" d="M623,56L623,0L0,0L0,56L623,56z" fill="#92d050"/></g><text class="st3"><tspan y="36" x="75" class="st5">HandlerMethodArgumentResolver</tspan><tspan>解析方法入参</tspan></text></g><g transform="translate(387,398)"><path stroke="#c0504d" id="shape27" d="M12.8,0L337.2,0C344.3,0,350,1.3,350,2.9L350,65.1C350,66.7,344.3,68,337.2,68L12.8,68C5.7,68,0,66.7,0,65.1L0,2.9C0,1.3,5.7,0,12.8,0z" fill="#c0504d"/><path id="shape28" d="M13.2,0L326.3,0C333.6,0,339.5,1.4,339.5,3.1L339.5,62.9C339.5,64.6,333.6,66,326.3,66L13.2,66C5.9,66,0,64.6,0,62.9L0,3.1C0,1.4,5.9,0,13.2,0z" transform="translate(5.25,1.02)" fill="url(#rg1)"/><path id="shape29" d="M13.2,0L326.4,0C333.4,0,339.5,1.5,339.5,3.2C339.5,8.5,333.4,12.4,326.3,15.4C320.1,18,305.6,21.8,295.4,21.8L44.1,21.8C34,21.8,19.4,18,13.2,15.4C6.1,12.9,0,8.5,0,3.2C0,1.5,5.9,0,13.2,0z" transform="translate(5.25,1.48)" fill="url(#lg2)"/><path id="shape30" d="M17,0C17,0,322.5,0,322.5,0C329.3,0,339.5,3.4,339.5,5C339.5,7.1,334.4,8.2,326.3,8.2L12.4,8.2C5.1,8.2,0,7.1,0,5C0,3.4,10.2,0,17,0z" transform="translate(5.25,58.29)" fill="url(#lg3)"/><text class="st6"><tspan y="40.5" x="36">HandlerInterceptor#preHandle</tspan></text></g><g id="shape31" transform="translate(1908.5,766)"><path stroke="#6d6d6d" d="M0,0L0,14.6" fill="none"/><path stroke="#6d6d6d" d="M0,19L3,13.8C2.1,14.3,1.1,14.6,0,14.6C-1.1,14.6,-2.1,14.3,-3,13.8L0,19" stroke-width="1" stroke-linecap="round" fill="#6d6d6d"/></g><g transform="translate(1597,785)"><g id="shape32"><path d="M625,58L625,2L2,2L2,58L625,58z" fill-opacity="0.08" fill="#000000"/><path stroke="#6d6d6d" d="M623,56L623,0L0,0L0,56L623,56z" fill="#ffc000"/></g><text class="st3"><tspan y="24" x="16">调用RequestResponseBodyAdviceChain(@ControllerAdivce、</tspan><tspan y="48" x="208">RequestBodyAdvice）</tspan></text></g><g id="shape33" transform="translate(1908.5,841)"><path stroke="#6d6d6d" d="M0,0L0,10.1" fill="none"/><path stroke="#6d6d6d" d="M0,14.5L3,9.3C2.1,9.8,1.1,10.1,0,10.1C-1.1,10.1,-2.1,9.8,-3,9.3L0,14.5" stroke-width="1" stroke-linecap="round" fill="#6d6d6d"/></g><g transform="translate(1597,855.5)"><g id="shape34"><path d="M625,87L625,2L2,2L2,87L625,87z" fill-opacity="0.08" fill="#000000"/><path stroke="#6d6d6d" d="M623,85L623,0L0,0L0,85L623,85z" fill="#ffc000"/></g><text class="st3"><tspan y="38.5" x="102">调用 HttpMessageConverter完成读取与转换</tspan><tspan y="62.5" x="103">(MappingJackson2HttpMessageConverter）</tspan></text></g><g id="shape35" transform="translate(1908.5,940.5)"><path stroke="#6d6d6d" d="M0,0L0,10.1" fill="none"/><path stroke="#6d6d6d" d="M0,14.5L3,9.3C2.1,9.8,1.1,10.1,0,10.1C-1.1,10.1,-2.1,9.8,-3,9.3L0,14.5" stroke-width="1" stroke-linecap="round" fill="#6d6d6d"/></g><g transform="translate(1597,955)"><g id="shape36"><path d="M625,87L625,2L2,2L2,87L625,87z" fill-opacity="0.08" fill="#000000"/><path stroke="#6d6d6d" d="M623,85L623,0L0,0L0,85L623,85z" fill="#ffffff"/></g><text class="st3"><tspan y="50.5" x="10">使用</tspan><tspan class="st2">WebDataBinderFactory</tspan><tspan>完成类型转换，比如pathvariable</tspan></text></g><g id="shape37" transform="translate(1569,1078)"><path stroke="#92d050" d="M0,0L12,0L12,-436.3L19.2,-436.3" stroke-width="4" fill="none"/><path stroke="#92d050" d="M28,-436.3L17.6,-442.3C18.6,-440.5,19.2,-438.4,19.2,-436.3C19.2,-434.1,18.6,-432,17.6,-430.3L28,-436.3" stroke-width="1" stroke-linecap="round" fill="#92d050"/></g><g id="shape38" transform="translate(763.76,590)"><path d="M2,17.1L102.7,17.1L93.3,6.3L98,2L116,20L98,38L93.3,33.7L102.7,22.9L2,22.9L2,17.1z" fill-opacity="0.08" fill="#000000"/><path stroke="#ffc000" d="M0,15.1L100.7,15.1L91.3,4.3L96,0L114,18L96,36L91.3,31.7L100.7,20.9L0,20.9L0,15.1z" fill="#ffc000"/></g><g id="shape39" transform="translate(763.76,854)"><path d="M2,17.1L102.7,17.1L93.3,6.3L98,2L116,20L98,38L93.3,33.7L102.7,22.9L2,22.9L2,17.1z" fill-opacity="0.08" fill="#000000"/><path stroke="#ffc000" d="M0,15.1L100.7,15.1L91.3,4.3L96,0L114,18L96,36L91.3,31.7L100.7,20.9L0,20.9L0,15.1z" fill="#ffc000"/></g><g id="shape40" transform="translate(1908.5,1040)"><path stroke="#6d6d6d" d="M0,0L0,55.6" fill="none"/><path stroke="#6d6d6d" d="M0,60L3,54.8C2.1,55.3,1.1,55.6,0,55.6C-1.1,55.6,-2.1,55.3,-3,54.8L0,60" stroke-width="1" stroke-linecap="round" fill="#6d6d6d"/></g><g transform="translate(1597,1100)"><g id="shape41"><path d="M625,87L625,2L2,2L2,87L625,87z" fill-opacity="0.08" fill="#000000"/><path stroke="#6d6d6d" d="M623,85L623,0L0,0L0,85L623,85z" fill="#ffffff"/></g><text class="st7"><tspan y="52" x="39">getBridgedMethod().invoke(getBean(), args)</tspan></text></g><g transform="translate(1597,1230)"><g id="shape42"><path d="M625,58L625,2L2,2L2,58L625,58z" fill-opacity="0.08" fill="#000000"/><path stroke="#6d6d6d" d="M623,56L623,0L0,0L0,56L623,56z" fill="#92d050"/></g><text class="st3"><tspan y="24" x="71" class="st5">HandlerMethodReturnValueHandler</tspan><tspan class="st8">处理返回值</tspan><tspan y="48" x="130">(HandlerMethodReturnValueHandler)</tspan></text></g><g id="shape43" transform="translate(2125.94,1073)"><path stroke="#ff0000" d="M33.3,0L29.2,11.9L19.6,4.4L19.6,14.9L7.7,10.8L13.4,22L0,19.4L10.2,28.2L0,31L12.6,37.3L2.4,43.2L15.7,47.5L8.3,56.6L21.8,53L21.2,65.1L32.2,57.8L40.3,67L47,59.6L52.2,67L58.7,58.4L66.5,65.2L72.2,54.8L86.5,59.6L80.2,48.2L92.7,50.8L83.9,41.5L94.1,35.8L81.4,32.4L89.3,21.3L76.5,22.8L83.4,11.3L70.3,14.3L68.9,2.5L56.2,9.5L50.6,0L41.9,10.7L33.3,0z" stroke-width="2.66667" fill="#ff0000"/><text class="st9"><tspan y="44" x="26">AOP</tspan></text></g><g id="shape44" transform="translate(1908.5,1185)"><path stroke="#6d6d6d" d="M0,0L0,40.6" fill="none"/><path stroke="#6d6d6d" d="M0,45L3,39.8C2.1,40.3,1.1,40.6,0,40.6C-1.1,40.6,-2.1,40.3,-3,39.8L0,45" stroke-width="1" stroke-linecap="round" fill="#6d6d6d"/></g><g id="shape45" transform="translate(1908.5,1286)"><path stroke="#6d6d6d" d="M0,0L0,55.6" fill="none"/><path stroke="#6d6d6d" d="M0,60L3,54.8C2.1,55.3,1.1,55.6,0,55.6C-1.1,55.6,-2.1,55.3,-3,54.8L0,60" stroke-width="1" stroke-linecap="round" fill="#6d6d6d"/></g><g transform="translate(1597,1346)"><g id="shape46"><path d="M625,79L625,2L2,2L2,79L625,79z" fill-opacity="0.08" fill="#000000"/><path stroke="#6d6d6d" d="M623,77L623,0L0,0L0,77L623,77z" fill="#ffc000"/></g><text class="st3"><tspan y="22.5" x="104">RequestResponseBodyMethodProcessor调用</tspan><tspan y="46.5" x="37">RequestResponseBodyAdviceChain(@ControllerAdivce、</tspan><tspan y="70.5" x="202">ResponseBodyAdvice）</tspan></text></g><g id="shape47" transform="translate(1908.5,1423)"><path stroke="#6d6d6d" d="M0,0L0,55.6" fill="none"/><path stroke="#6d6d6d" d="M0,60L3,54.8C2.1,55.3,1.1,55.6,0,55.6C-1.1,55.6,-2.1,55.3,-3,54.8L0,60" stroke-width="1" stroke-linecap="round" fill="#6d6d6d"/></g><g transform="translate(1597,1483)"><g id="shape48"><path d="M625,79L625,2L2,2L2,79L625,79z" fill-opacity="0.08" fill="#000000"/><path stroke="#6d6d6d" d="M623,77L623,0L0,0L0,77L623,77z" fill="#ffc000"/></g><text class="st3"><tspan y="34.5" x="202">HttpMessageConverter</tspan><tspan y="58.5" x="86">MappingJackson2HttpMessageConverter#write</tspan></text></g><g id="shape49" transform="translate(1241,1106)"><path stroke="#6d6d6d" d="M0,0L0,55.6" fill="none"/><path stroke="#6d6d6d" d="M0,60L3,54.8C2.1,55.3,1.1,55.6,0,55.6C-1.1,55.6,-2.1,55.3,-3,54.8L0,60" stroke-width="1" stroke-linecap="round" fill="#6d6d6d"/></g><g transform="translate(913,1166)"><g id="shape50"><path d="M658,58L658,2L2,2L2,58L658,58z" fill-opacity="0.08" fill="#000000"/><path stroke="#6d6d6d" d="M656,56L656,0L0,0L0,56L656,56z" fill="url(#lg1)"/></g><text class="st3"><tspan y="36" x="20">getModelAndView(mavContainer, modelFactory, webRequest);</tspan></text></g><g transform="translate(393,1115)"><path stroke="#c0504d" id="shape51" d="M12.8,0L337.2,0C344.3,0,350,1.3,350,2.9L350,65.1C350,66.7,344.3,68,337.2,68L12.8,68C5.7,68,0,66.7,0,65.1L0,2.9C0,1.3,5.7,0,12.8,0z" fill="#c0504d"/><path id="shape52" d="M13.2,0L326.3,0C333.6,0,339.5,1.4,339.5,3.1L339.5,62.9C339.5,64.6,333.6,66,326.3,66L13.2,66C5.9,66,0,64.6,0,62.9L0,3.1C0,1.4,5.9,0,13.2,0z" transform="translate(5.25,1.02)" fill="url(#rg1)"/><path id="shape53" d="M13.2,0L326.4,0C333.4,0,339.5,1.5,339.5,3.2C339.5,8.5,333.4,12.4,326.3,15.4C320.1,18,305.6,21.8,295.4,21.8L44.1,21.8C34,21.8,19.4,18,13.2,15.4C6.1,12.9,0,8.5,0,3.2C0,1.5,5.9,0,13.2,0z" transform="translate(5.25,1.48)" fill="url(#lg2)"/><path id="shape54" d="M17,0C17,0,322.5,0,322.5,0C329.3,0,339.5,3.4,339.5,5C339.5,7.1,334.4,8.2,326.3,8.2L12.4,8.2C5.1,8.2,0,7.1,0,5C0,3.4,10.2,0,17,0z" transform="translate(5.25,58.29)" fill="url(#lg3)"/><text class="st6"><tspan y="40.5" x="31">HandlerInterceptor#postHandle</tspan></text></g><g transform="translate(860,1352)"><g id="shape55"><path d="M720,58L720,2L2,2L2,58L720,58z" fill-opacity="0.08" fill="#000000"/><path stroke="#6d6d6d" d="M718,56L718,0L0,0L0,56L718,56z" fill="url(#lg1)"/></g><text class="st3"><tspan y="24" x="178">ExceptionHandlerExceptionResolver</tspan><tspan y="48" x="183">#doResolveHandlerMethodException</tspan></text></g><g id="shape56" transform="translate(743,1471.5)"><path stroke="#6d6d6d" d="M0,0L85,0L85,-91.5L112.6,-91.5" fill="none"/><path stroke="#6d6d6d" d="M117,-91.5L111.8,-94.5C112.3,-93.6,112.6,-92.6,112.6,-91.5C112.6,-90.4,112.3,-89.4,111.8,-88.5L117,-91.5" stroke-width="1" stroke-linecap="round" fill="#6d6d6d"/></g><g id="shape57" transform="translate(743,1471.5)"><path stroke="#6d6d6d" d="M0,0L85,0L85,75L112.6,75" fill="none"/><path stroke="#6d6d6d" d="M117,75L111.8,72C112.3,72.9,112.6,73.9,112.6,75C112.6,76.1,112.3,77.1,111.8,78L117,75" stroke-width="1" stroke-linecap="round" fill="#6d6d6d"/></g><g transform="translate(860,1515)"><g id="shape58"><path d="M711,65L711,2L2,2L2,65L711,65z" fill-opacity="0.08" fill="#000000"/><path stroke="#6d6d6d" d="M709,63L709,0L0,0L0,63L709,63z" fill="url(#lg1)"/></g><text class="st3"><tspan y="39.5" x="245">ThymeleafView#render</tspan></text></g><g transform="translate(1162,1410.5)"><g id="shape59"><path d="M2,108.8L2,2L418,2L418,108.8C350.2,88.4,277.8,88.4,210,108.7C142.2,129.1,69.8,129.1,2,108.8z" fill-opacity="0.08" fill="#000000"/><path stroke="#6d6d6d" d="M0,106.8L0,0L416,0L416,106.8C348.2,86.4,275.8,86.4,208,106.7C140.2,127.1,67.8,127.1,0,106.8z" fill="#92d050"/></g><text class="st3"><tspan y="33" x="8">重新走一遍</tspan><tspan y="57" x="8">ServletInvocableHandlerMethod的流程</tspan><tspan y="81" x="8">最后执行ControllerAdapter、</tspan><tspan y="105" x="8">ExceptionHandler</tspan></text></g></g></svg>