<svg xmlns:xlink="http://www.w3.org/1999/xlink" width="1132" xmlns:ev="http://www.w3.org/2001/xml-events" height="804" viewBox="0 0 1132 804" xmlns="http://www.w3.org/2000/svg"><style type="text/css"><![CDATA[
.st3 {fill:#303030;font-family:宋体;font-size:14pt;font-weight:bold}
.st4 {fill:#303030;font-family:宋体;font-size:14pt}
.st1 {fill:#303030;font-family:宋体;font-size:16pt;font-weight:bold}
.st2 {fill:#303030;font-family:宋体;font-size:16pt}
]]></style><defs><linearGradient y1="0%" x2="0%" x1="0%" y2="100%" id="lg1"><stop stop-color="#fbfbfb" offset="0"/><stop stop-color="#efefef" offset="1"/></linearGradient></defs><g transform="translate(5,5)" id="page1"><rect x="0" y="0" width="1123" fill="#ffffff" height="794" stroke="#808080"/><g transform="translate(57.02,636.97)"><g id="shape1"><path fill="#000000" d="M50.9,99.7L199.3,99.7C226.3,99.7,248.1,77.8,248.1,50.9C248.1,23.9,226.3,2,199.3,2L50.9,2C23.9,2,2,23.9,2,50.9C2,77.8,23.9,99.7,50.9,99.7z" fill-opacity="0.08"/><path fill="#ffc000" d="M48.9,97.7L197.3,97.7C224.3,97.7,246.1,75.8,246.1,48.9C246.1,21.9,224.3,0,197.3,0L48.9,0C21.9,0,0,21.9,0,48.9C0,75.8,21.9,97.7,48.9,97.7z" stroke="#6d6d6d"/></g><text class="st1"><tspan x="51.1" y="56.9">Introspector</tspan></text></g><g transform="translate(66,463.45)"><g id="shape2"><path fill="#000000" d="M230.2,96.3L230.2,2L2,2L2,96.3L230.2,96.3z" fill-opacity="0.08"/><path fill="url(#lg1)" d="M228.2,94.3L228.2,0L0,0L0,94.3L228.2,94.3z" stroke="#6d6d6d"/></g><text class="st1"><tspan x="66.1" y="55.2">BeanInfo</tspan></text></g><g transform="translate(180.08,636.97)" id="shape3"><path d="M0,0L0,-74.8" fill="none" stroke="#6d6d6d"/><path fill="#6d6d6d" d="M0,-79.2L-3,-74C-2.1,-74.5,-1.1,-74.8,0,-74.8C1.1,-74.8,2.1,-74.5,3,-74L0,-79.2" stroke-linecap="round" stroke-width="1" stroke="#6d6d6d"/><rect x="-20.9" y="-51.6" width="42.9" fill="#ffffff" height="24"/><text class="st2"><tspan x="-21" y="-31.6">反射</tspan></text></g><g transform="translate(294.16,510.62)" id="shape4"><path d="M0,0L81.8,0" fill="none" stroke="#6d6d6d"/><path fill="#6d6d6d" d="M86.2,0L81,-3C81.6,-2.1,81.8,-1.1,81.8,0C81.8,1.1,81.6,2.1,81,3L86.2,0" stroke-linecap="round" stroke-width="1" stroke="#6d6d6d"/></g><g transform="translate(380.4,463.45)"><g id="shape5"><path fill="#000000" d="M273.3,96.3L273.3,2L2,2L2,96.3L273.3,96.3z" fill-opacity="0.08"/><path fill="url(#lg1)" d="M271.3,94.3L271.3,0L0,0L0,94.3L271.3,94.3z" stroke="#6d6d6d"/></g><text class="st2"><tspan x="37.1" y="55.2">PropertyDescriptor</tspan></text></g><g transform="translate(651.68,510.62)" id="shape6"><path d="M0,0L103.4,0" fill="none" stroke="#6d6d6d"/><path fill="#6d6d6d" d="M107.8,0L102.6,-3C103.1,-2.1,103.4,-1.1,103.4,0C103.4,1.1,103.1,2.1,102.6,3L107.8,0" stroke-linecap="round" stroke-width="1" stroke="#6d6d6d"/><rect x="32" y="-12" width="45" fill="#ffffff" height="24"/><text class="st1"><tspan x="31.9" y="8">设置</tspan></text></g><g transform="translate(759.47,463.45)"><g id="shape7"><path fill="#000000" d="M273.3,96.3L273.3,2L2,2L2,96.3L273.3,96.3z" fill-opacity="0.08"/><path fill="url(#lg1)" d="M271.3,94.3L271.3,0L0,0L0,94.3L271.3,94.3z" stroke="#6d6d6d"/></g><text class="st2"><tspan x="64.1" y="55.2">PropertyValue</tspan></text></g><g transform="translate(547.48,264.67)"><g id="shape8"><path fill="#000000" d="M296.6,99.7L296.6,2L2,2L2,99.7L296.6,99.7z" fill-opacity="0.08"/><path fill="url(#lg1)" d="M294.6,97.7L294.6,0L0,0L0,97.7L294.6,97.7z" stroke="#6d6d6d"/></g><text class="st1"><tspan x="63.3" y="56.9">PropertyEditor</tspan></text></g><g transform="translate(694.24,397)" id="shape9"><path d="M0,0L0,94.1" fill="none" stroke="#6d6d6d"/><path fill="#6d6d6d" d="M0,98.5L3,93.3C2.1,93.8,1.1,94.1,0,94.1C-1.1,94.1,-2.1,93.8,-3,93.3L0,98.5" stroke-linecap="round" stroke-width="1" stroke="#6d6d6d"/></g><g transform="translate(547.48,69.25)"><g id="shape10"><path fill="#000000" d="M296.6,99.7L296.6,2L2,2L2,99.7L296.6,99.7z" fill-opacity="0.08"/><path fill="url(#lg1)" d="M294.6,97.7L294.6,0L0,0L0,97.7L294.6,97.7z" stroke="#6d6d6d"/></g><text class="st2"><tspan x="32.3" y="56.9">PropertyEditorManager</tspan></text></g><g transform="translate(694.8,166.96)" id="shape11"><path d="M0,0L0,93.3" fill="none" stroke="#6d6d6d"/><path fill="#6d6d6d" d="M0,97.7L3,92.5C2.1,93,1.1,93.3,0,93.3C-1.1,93.3,-2.1,93,-3,92.5L0,97.7" stroke-linecap="round" stroke-width="1" stroke="#6d6d6d"/><rect x="-54.9" y="36.9" width="112.4" fill="#ffffff" height="24"/><text class="st1"><tspan x="-55" y="56.9">提供相应的</tspan></text></g><g transform="translate(516.04,557.79)" id="shape12"><path d="M0,0L0,32L379.1,32L379.1,4.4" fill="none" stroke="#6d6d6d"/><path fill="#6d6d6d" d="M379.1,0L376.1,5.2C377,4.7,378,4.4,379.1,4.4C380.2,4.4,381.2,4.7,382.1,5.2L379.1,0" stroke-linecap="round" stroke-width="1" stroke="#6d6d6d"/><rect x="93.6" y="8" width="196.2" fill="#ffffff" height="24"/><rect x="99.8" y="32" width="184" fill="#ffffff" height="24"/><text class="st1"><tspan x="93.5" y="28">getWriteMethod()</tspan><tspan x="99.5" y="52">method.invoke()</tspan></text></g><g transform="translate(759.47,657.83)"><g id="shape13"><path fill="#000000" d="M272.5,58L272.5,2L2,2L2,58L272.5,58z" fill-opacity="0.08"/><path fill="url(#lg1)" d="M270.5,56L270.5,0L0,0L0,56L270.5,56z" stroke="#6d6d6d"/></g><text class="st3"><tspan x="29.3" y="35">new Object()对象实例</tspan></text></g><g transform="translate(894.74,657.83)" id="shape14"><path d="M0,0L0,-68L.3,-95.6" fill="none" stroke="#6d6d6d"/><path fill="#6d6d6d" d="M.4,-100L-2.7,-94.9C-1.8,-95.4,-0.8,-95.7,.3,-95.6C1.4,-95.6,2.4,-95.3,3.3,-94.8L.4,-100" stroke-linecap="round" stroke-width="1" stroke="#6d6d6d"/></g><g transform="translate(380.4,426)"><g id="shape15"><path fill="#000000" d="M273.6,39L273.6,2L2,2L2,39L273.6,39z" fill-opacity="0.08"/><path fill="url(#lg1)" d="M271.6,37L271.6,0L0,0L0,37L271.6,37z" stroke="#6d6d6d"/></g><text class="st4"><tspan x="88.3" y="25.5">属性描述符</tspan></text></g><g transform="translate(547.48,360)"><g id="shape16"><path fill="#000000" d="M295.5,39L295.5,2L2,2L2,39L295.5,39z" fill-opacity="0.08"/><path fill="url(#lg1)" d="M293.5,37L293.5,0L0,0L0,37L293.5,37z" stroke="#6d6d6d"/></g><text class="st4"><tspan x="80.3" y="25.5">属性类型转换器</tspan></text></g><g transform="translate(758.4,426)"><g id="shape17"><path fill="#000000" d="M273.6,39L273.6,2L2,2L2,39L273.6,39z" fill-opacity="0.08"/><path fill="url(#lg1)" d="M271.6,37L271.6,0L0,0L0,37L271.6,37z" stroke="#6d6d6d"/></g><text class="st4"><tspan x="107.3" y="25.5">属性值</tspan></text></g><g transform="translate(66,426)"><g id="shape18"><path fill="#000000" d="M229,39L229,2L2,2L2,39L229,39z" fill-opacity="0.08"/><path fill="url(#lg1)" d="M227,37L227,0L0,0L0,37L227,37z" stroke="#6d6d6d"/></g><text class="st4"><tspan x="65" y="25.5">Bean元信息</tspan></text></g></g></svg>