<svg xmlns:xlink="http://www.w3.org/1999/xlink" width="1132" xmlns:ev="http://www.w3.org/2001/xml-events" height="804" viewBox="0 0 1132 804" xmlns="http://www.w3.org/2000/svg"><style type="text/css"><![CDATA[
.st2 {fill:#303030;font-family:宋体;font-size:12pt}
.st1 {fill:#303030;font-family:宋体;font-size:14pt}
.st3 {fill:#ffffff;font-family:宋体;font-size:14pt;font-weight:bold}
]]></style><defs><linearGradient y1="0%" x2="0%" x1="0%" y2="100%" id="lg1"><stop stop-color="#fbfbfb" offset="0"/><stop stop-color="#efefef" offset="1"/></linearGradient><linearGradient y1="0%" x2="0%" x1="0%" y2="100%" id="lg2"><stop stop-color="#fcfafa" offset="0"/><stop stop-color="#f4e9e9" offset="1"/></linearGradient><linearGradient y1="0%" x2="0%" x1="0%" y2="100%" id="lg3"><stop stop-color="#fbfcfa" offset="0"/><stop stop-color="#eff3ea" offset="1"/></linearGradient><linearGradient y1="0%" x2="0%" x1="0%" y2="100%" id="lg4"><stop stop-color="#fafbfc" offset="0"/><stop stop-color="#e9edf4" offset="1"/></linearGradient></defs><g transform="translate(5,5)" id="page1"><rect x="0" y="0" width="1123" fill="#ffffff" height="794" stroke="#808080"/><g transform="translate(53.06,533.11)"><g id="shape1"><path fill="#000000" d="M42.8,83.6L174,83.6C196.5,83.6,214.8,65.3,214.8,42.8C214.8,20.3,196.5,2,174,2L42.8,2C20.3,2,2,20.3,2,42.8C2,65.3,20.3,83.6,42.8,83.6z" fill-opacity="0.08"/><path fill="#ffc000" d="M40.8,81.6L172,81.6C194.5,81.6,212.8,63.3,212.8,40.8C212.8,18.3,194.5,0,172,0L40.8,0C18.3,0,0,18.3,0,40.8C0,63.3,18.3,81.6,40.8,81.6z" stroke="#6d6d6d"/></g><text class="st1"><tspan x="51.4" y="47.8">BeanWrapper</tspan></text></g><g transform="translate(159.45,533.11)" id="shape2"><path d="M0,0L0,-122.2" fill="none" stroke="#6d6d6d"/><path fill="#6d6d6d" d="M0,-126.6L-3,-121.4C-2.1,-121.9,-1.1,-122.2,0,-122.2C1.1,-122.2,2.1,-121.9,3,-121.4L0,-126.6" stroke-linecap="round" stroke-width="1" stroke="#6d6d6d"/><rect x="-18.9" y="-74.3" width="38.8" fill="#ffffff" height="22"/><text class="st1"><tspan x="-19" y="-56.3">解析</tspan></text></g><g transform="translate(58.89,322)"><g id="shape3"><path fill="#000000" d="M203.1,86.5L203.1,2L2,2L2,86.5L203.1,86.5z" fill-opacity="0.08"/><path fill="url(#lg1)" d="M201.1,84.5L201.1,0L0,0L0,84.5L201.1,84.5z" stroke="#6d6d6d"/></g><text class="st1"><tspan x="41.1" y="38.3">propertyname</tspan><tspan x="72.1" y="60.3">属性名</tspan></text></g><g transform="translate(830.36,362.6)"><g id="shape4"><path fill="#000000" d="M227.1,86.5L227.1,2L2,2L2,86.5L227.1,86.5z" fill-opacity="0.08"/><path fill="url(#lg1)" d="M225.1,84.5L225.1,0L0,0L0,84.5L225.1,84.5z" stroke="#6d6d6d"/></g><text class="st1"><tspan x="48.1" y="38.3">propertyValue</tspan><tspan x="84.1" y="60.3">属性值</tspan></text></g><g transform="translate(159.45,322)" id="shape5"><path d="M0,0L0,-102.2L58.3,-102.2" fill="none" stroke="#6d6d6d"/><path fill="#6d6d6d" d="M62.7,-102.2L57.5,-105.2C58,-104.3,58.3,-103.3,58.3,-102.2C58.3,-101.1,58,-100.1,57.5,-99.2L62.7,-102.2" stroke-linecap="round" stroke-width="1" stroke="#6d6d6d"/></g><g transform="translate(222.12,177.52)"><g id="shape6"><path fill="#000000" d="M267.2,86.5L267.2,2L2,2L2,86.5L267.2,86.5z" fill-opacity="0.08"/><path fill="url(#lg1)" d="M265.2,84.5L265.2,0L0,0L0,84.5L265.2,84.5z" stroke="#6d6d6d"/></g><text class="st1"><tspan x="28.1" y="49.3">TypeConverterDelegate</tspan></text></g><g transform="translate(487.35,219.78)" id="shape7"><path d="M0,0L83,0" fill="none" stroke="#6d6d6d"/><path fill="#6d6d6d" d="M87.4,0L82.2,-3C82.8,-2.1,83,-1.1,83,0C83,1.1,82.8,2.1,82.2,3L87.4,0" stroke-linecap="round" stroke-width="1" stroke="#6d6d6d"/><rect x="1.1" y="-11" width="38.8" fill="#ffffff" height="22"/><text class="st1"><tspan x="1" y="7">代理</tspan></text></g><g transform="translate(279.78,482.88)"><path fill="#000000" d="M2,2L187.6,2L187.6,59.4L2,59.4L2,2zM182.5,2L138.8,2L160.6,17.5L182.5,2z" fill-opacity="0.08"/><path fill="url(#lg1)" d="M0,0L185.6,0L185.6,57.4L0,57.4L0,0z" stroke="#6d6d6d" id="shape8"/><path transform="translate(136.75,-0)" fill="#ffffff" d="M0,0L43.8,0L21.9,15.5L0,0z" stroke="#ffffff" id="shape9"/><text class="st1"><tspan x="4.3" y="35.7">包裹Bean实例</tspan></text></g><g transform="translate(279.78,545.21)"><path fill="#000000" d="M2,2L187.6,2L187.6,59.4L2,59.4L2,2zM182.5,2L138.8,2L160.6,17.5L182.5,2z" fill-opacity="0.08"/><path fill="url(#lg2)" d="M0,0L185.6,0L185.6,57.4L0,57.4L0,0z" stroke="#8c3836" id="shape10"/><path transform="translate(136.75,0)" fill="#ffffff" d="M0,0L43.8,0L21.9,15.5L0,0z" stroke="#ffffff" id="shape11"/><text class="st1"><tspan x="4.3" y="35.7">属性类型转换器</tspan></text></g><g transform="translate(279.78,607.53)"><path fill="#000000" d="M2,2L138.8,2L182.5,2L187.6,2L187.6,59.4L2,59.4L2,2z" fill-opacity="0.08"/><path fill="url(#lg3)" d="M0,0L185.6,0L185.6,57.4L0,57.4L0,0z" stroke="#71893f" id="shape12"/><path transform="translate(136.75,-0)" fill="#ffffff" d="M0,0L43.8,0L21.9,15.5L0,0z" stroke="#ffffff" id="shape13"/><text class="st1"><tspan x="4.3" y="35.7">属性类型转换器注册</tspan></text></g><g transform="translate(572.63,128.75)"><path fill="#000000" d="M2,2L165.2,2L165.2,59.4L2,59.4L2,2zM160.8,2L122.3,2L141.5,17.5L160.8,2z" fill-opacity="0.08"/><path fill="url(#lg1)" d="M0,0L163.2,0L163.2,57.4L0,57.4L0,0z" stroke="#6d6d6d" id="shape14"/><path transform="translate(120.28,-0)" fill="#ffffff" d="M0,0L38.5,0L19.3,15.5L0,0z" stroke="#ffffff" id="shape15"/><text class="st2"><tspan x="14.1" y="34.7">ConversionService</tspan></text></g><g transform="translate(572.63,191.07)"><path fill="#000000" d="M2,2L165.2,2L165.2,59.4L2,59.4L2,2zM160.8,2L122.3,2L141.5,17.5L160.8,2z" fill-opacity="0.08"/><path fill="url(#lg2)" d="M0,0L163.2,0L163.2,57.4L0,57.4L0,0z" stroke="#8c3836" id="shape16"/><path transform="translate(120.28,0)" fill="#ffffff" d="M0,0L38.5,0L19.3,15.5L0,0z" stroke="#ffffff" id="shape17"/><text class="st2"><tspan x="26.1" y="34.7">ProtertyEditor</tspan></text></g><g transform="translate(572.63,253.4)"><path fill="#000000" d="M2,2L165.2,2L165.2,59.4L2,59.4L2,2zM160.8,2L122.3,2L141.5,17.5L160.8,2z" fill-opacity="0.08"/><path fill="url(#lg4)" d="M0,0L163.2,0L163.2,57.4L0,57.4L0,0z" stroke="#385d8a" id="shape18"/><path transform="translate(120.28,0)" fill="#ffffff" d="M0,0L38.5,0L19.3,15.5L0,0z" stroke="#ffffff" id="shape19"/><text class="st2"><tspan x="6.1" y="25.7">Array、Collection、</tspan><tspan x="14.1" y="43.7">Map、Enum、Number</tspan></text></g><g transform="translate(830.36,177.52)"><g id="shape20"><path fill="#000000" d="M227.1,86.5L227.1,2L2,2L2,86.5L227.1,86.5z" fill-opacity="0.08"/><path fill="url(#lg1)" d="M225.1,84.5L225.1,0L0,0L0,84.5L225.1,84.5z" stroke="#6d6d6d"/></g><text class="st1"><tspan x="18.1" y="49.3">BeanPropertyHandler</tspan></text></g><g transform="translate(742.92,219.78)" id="shape21"><path d="M0,0L83,0" fill="none" stroke="#6d6d6d"/><path fill="#6d6d6d" d="M87.4,0L82.2,-3C82.8,-2.1,83,-1.1,83,0C83,1.1,82.8,2.1,82.2,3L87.4,0" stroke-linecap="round" stroke-width="1" stroke="#6d6d6d"/><rect x="11.8" y="-9" width="65.4" fill="#ffffff" height="18"/><text class="st2"><tspan x="11.7" y="6">类型转换</tspan></text></g><g transform="translate(942.93,262.05)" id="shape22"><path d="M0,0L0,96.2" fill="none" stroke="#6d6d6d"/><path fill="#6d6d6d" d="M0,100.6L3,95.4C2.1,95.9,1.1,96.2,0,96.2C-1.1,96.2,-2.1,95.9,-3,95.4L0,100.6" stroke-linecap="round" stroke-width="1" stroke="#6d6d6d"/><rect x="-79.9" y="41.3" width="163.5" fill="#ffffff" height="18"/><text class="st2"><tspan x="-80" y="56.3">writeMethod.invoke()</tspan></text></g><g transform="translate(266.19,304.39)"><path fill="#000000" d="M2,2L284.7,2L284.7,59.4L2,59.4L2,2zM277,2L210.3,2L243.7,17.5L277,2z" fill-opacity="0.08"/><path fill="url(#lg1)" d="M0,0L282.7,0L282.7,57.4L0,57.4L0,0z" stroke="#6d6d6d" id="shape23"/><path transform="translate(208.32,0)" fill="#ffffff" d="M0,0L66.7,0L33.3,15.5L0,0z" stroke="#ffffff" id="shape24"/><text class="st2"><tspan x="4.4" y="25.7">account.name对应对应的是</tspan><tspan x="4.4" y="43.7">getAccount().setName()</tspan></text></g><g transform="translate(266.19,366.72)"><path fill="#000000" d="M2,2L284.7,2L284.7,59.4L2,59.4L2,2zM277,2L210.3,2L243.7,17.5L277,2z" fill-opacity="0.08"/><path fill="url(#lg2)" d="M0,0L282.7,0L282.7,57.4L0,57.4L0,0z" stroke="#8c3836" id="shape25"/><path transform="translate(208.32,0)" fill="#ffffff" d="M0,0L66.7,0L33.3,15.5L0,0z" stroke="#ffffff" id="shape26"/><text class="st2"><tspan x="4.4" y="25.7">account[COMPANYNAME]对应Map实体</tspan><tspan x="4.4" y="43.7">account中key(COMPANYNAME)的值</tspan></text></g><g transform="translate(45.77,669.86)"><path fill="#9bbb59" d="M0,0L682.2,0L682.2,76.1L0,76.1L0,0z" stroke="#9bbb59" id="shape27"/><path transform="translate(502.66,0)" fill="#ffffff" d="M0,0L160.9,0L80.5,20.5L0,0z" stroke="#ffffff" id="shape28"/><text class="st3"><tspan x="4.1" y="34.1">BeanWrapper中通过CachedIntrospectionResults封装了BeanInfo</tspan><tspan x="4.1" y="56.1">BeanPropertyHandler封装PropertyDescriptor</tspan></text></g></g></svg>