<svg width="1132" xmlns="http://www.w3.org/2000/svg" viewBox="0 0 1132 1597" xmlns:xlink="http://www.w3.org/1999/xlink" xmlns:ev="http://www.w3.org/2001/xml-events" height="1597"><style type="text/css"><![CDATA[
.st3 {fill:#303030;font-family:宋体;font-size:10pt}
.st2 {fill:#303030;font-family:宋体;font-size:14pt;font-weight:bold}
.st1 {fill:#303030;font-family:宋体;font-size:14pt}
]]></style><defs><linearGradient id="lg1" x1="0%" y1="0%" x2="0%" y2="100%"><stop stop-color="#fbfbfb" offset="0"/><stop stop-color="#efefef" offset="1"/></linearGradient><linearGradient id="lg2" x1="0%" y1="0%" x2="0%" y2="100%"><stop stop-color="#fafbfc" offset="0"/><stop stop-color="#e9edf4" offset="1"/></linearGradient><linearGradient id="lg3" x1="0%" y1="0%" x2="0%" y2="100%"><stop stop-color="#fcfafa" offset="0"/><stop stop-color="#f4e9e9" offset="1"/></linearGradient><linearGradient id="lg4" x1="0%" y1="0%" x2="0%" y2="100%"><stop stop-color="#fbfcfa" offset="0"/><stop stop-color="#eff3ea" offset="1"/></linearGradient></defs><g id="page1" transform="translate(5,5)"><rect fill="#ffffff" stroke="#808080" width="1123" x="0" y="0" height="1587"/><g transform="translate(455.06,101.33)"><g id="shape1"><path fill="#000000" fill-opacity="0.08" d="M227.7,74.3L227.7,2L2,2L2,74.3L227.7,74.3z"/><path fill="url(#lg1)" stroke="#6d6d6d" d="M225.7,72.3L225.7,0L0,0L0,72.3L225.7,72.3z"/></g><text class="st1"><tspan x="58.4" y="43.1">Environment</tspan></text></g><g id="shape2" transform="translate(567.94,173.59)"><path fill="none" stroke="#6d6d6d" d="M0,0L0,71.7"/><path stroke-linecap="round" fill="#6d6d6d" stroke="#6d6d6d" stroke-width="1" d="M0,76.1L3,70.9C2.1,71.4,1.1,71.7,0,71.7C-1.1,71.7,-2.1,71.4,-3,70.9L0,76.1"/><rect fill="#ffffff" width="245.3" x="-119.9" y="27.1" height="22"/><text class="st1"><tspan x="-120" y="45.1">BeanFactoryPostProcessor</tspan></text></g><g transform="translate(455.06,249.72)"><g id="shape3"><path fill="#000000" fill-opacity="0.08" d="M227.7,76.8L227.7,2L2,2L2,76.8L227.7,76.8z"/><path fill="url(#lg1)" stroke="#6d6d6d" d="M225.7,74.8L225.7,0L0,0L0,74.8L225.7,74.8z"/></g><text class="st1"><tspan x="43.4" y="44.4">Beandefinition</tspan></text></g><g transform="translate(696.96,221.52)"><g id="shape4"><path fill="#000000" fill-opacity="0.08" d="M2,116.8L2,2L387.1,2L387.1,116.8C324.8,95,256.9,95,194.5,116.8C132.2,138.7,64.3,138.7,2,116.8z"/><path fill="url(#lg1)" stroke="#6d6d6d" d="M0,114.8L0,0L385.1,0L385.1,114.8C322.8,93,254.9,93,192.5,114.8C130.2,136.7,62.3,136.7,0,114.8z"/></g><text class="st1"><tspan x="8" y="18.6">ConfigurationClassPostProcessor</tspan><tspan x="8" y="40.6">@ComponentScan</tspan><tspan x="8" y="62.6">@Comfiguration</tspan><tspan x="8" y="84.6">@Import</tspan><tspan x="8" y="106.6">@ImportResource</tspan></text></g><g transform="translate(455.06,796.28)"><g id="shape5"><path fill="#000000" fill-opacity="0.08" d="M227.7,76.8L227.7,2L2,2L2,76.8L227.7,76.8z"/><path fill="url(#lg1)" stroke="#6d6d6d" d="M225.7,74.8L225.7,0L0,0L0,74.8L225.7,74.8z"/></g><text class="st1"><tspan x="75.4" y="33.4">初始化：</tspan><tspan x="43.4" y="55.4">Initialization</tspan></text></g><g id="shape6" transform="translate(567.94,324.55)"><path fill="none" stroke="#6d6d6d" d="M0,0L0,73"/><path stroke-linecap="round" fill="#6d6d6d" stroke="#6d6d6d" stroke-width="1" d="M0,77.4L3,72.2C2.1,72.7,1.1,73,0,73C-1.1,73,-2.1,72.7,-3,72.2L0,77.4"/></g><g transform="translate(696.96,760.67)"><g id="shape7"><path fill="#000000" fill-opacity="0.08" d="M2,151L2,2L405.1,2L405.1,151C340.9,122.6,267.7,122.6,203.5,151C139.4,179.4,66.2,179.4,2,151z"/><path fill="url(#lg1)" stroke="#6d6d6d" d="M0,149L0,0L403.1,0L403.1,149C338.9,120.6,265.7,120.6,201.5,149C137.4,177.4,64.2,177.4,0,149z"/></g><text class="st1"><tspan x="8" y="27.2">InitDestroyAnnotationBeanPostProcessor</tspan><tspan x="8" y="49.2">  #postProcessBeforeInitialization</tspan><tspan x="8" y="71.2">AbstractAutoProxyCreator</tspan><tspan x="8" y="93.2">  #postProcessAfterInitialization</tspan><tspan x="8" y="115.2">执行init-method()</tspan><tspan x="8" y="137.2">创建代理</tspan></text></g><g transform="translate(1.48,410.36)"><g id="shape8"><path fill="#000000" fill-opacity="0.08" d="M404,60.1L404,2L2,2L2,60.1L404,60.1z"/><path fill="url(#lg2)" stroke="#385d8a" d="M402,58.1L402,0L0,0L0,58.1L402,58.1z"/></g><text class="st2"><tspan x="9" y="36">InstantiationAwareBeanPostProcessor</tspan></text></g><g transform="translate(5.22,796.28)"><g id="shape9"><path fill="#000000" fill-opacity="0.08" d="M372.3,60.1L372.3,2L2,2L2,60.1L372.3,60.1z"/><path fill="url(#lg2)" stroke="#385d8a" d="M370.3,58.1L370.3,0L0,0L0,58.1L370.3,58.1z"/></g><text class="st2"><tspan x="92.1" y="36">BeanPostProcessor</tspan></text></g><g transform="translate(696.96,354.23)"><g id="shape10"><path fill="#000000" fill-opacity="0.08" d="M2,267.7L2,2L387.1,2L387.1,267.7C330,224.9,251.6,224.9,194.5,267.7C137.5,310.5,59,310.5,2,267.7z"/><path fill="url(#lg1)" stroke="#6d6d6d" d="M0,265.7L0,0L385.1,0L385.1,265.7C328,222.9,249.6,222.9,192.5,265.7C135.5,308.5,57,308.5,0,265.7z"/></g><text class="st1"><tspan x="8" y="68.9">AbstractAutoProxyCreator</tspan><tspan x="8" y="90.9">  #postProcessBeforeInstantiation:</tspan><tspan x="8" y="112.9">RequiredAnnotationBeanPostProcessor</tspan><tspan x="8" y="134.9">  #postProcessPropertyValues</tspan><tspan x="8" y="156.9">AutowiredAnnotationBeanPostProcessor</tspan><tspan x="8" y="178.9">  #postProcessPropertyValues</tspan><tspan x="8" y="200.9">AOP切面增强</tspan><tspan x="8" y="222.9">处理属性值：@Autowried、@Requrire</tspan></text></g><g transform="translate(118.44,958.12)"><path fill="#000000" fill-opacity="0.08" d="M2,2L344.2,2L344.2,31L2,31L2,2zM334.8,2L254.1,2L294.4,9.8L334.8,2z"/><path id="shape11" fill="url(#lg3)" stroke="#8c3836" d="M0,0L342.2,0L342.2,29L0,29L0,0z"/><path id="shape12" fill="#ffffff" stroke="#ffffff" transform="translate(252.09,0)" d="M0,0L80.7,0L40.4,7.8L0,0z"/><text class="st1"><tspan x="16.1" y="21.5">postProcessBeforeInitialization</tspan></text></g><g transform="translate(247.79,1105.5)"><g id="shape13"><path fill="#000000" fill-opacity="0.08" d="M244.6,96.2L244.6,2L2,2L2,96.2L244.6,96.2z"/><path fill="url(#lg1)" stroke="#6d6d6d" d="M242.6,94.2L242.6,0L0,0L0,94.2L242.6,94.2z"/></g><text class="st1"><tspan x="11.3" y="43.1">ClassPathResourcesLoad</tspan><tspan x="111.3" y="65.1">er</tspan></text></g><g id="shape14" transform="translate(369.08,1199.69)"><path fill="none" stroke="#6d6d6d" d="M0,0L0,81.4"/><path stroke-linecap="round" fill="#6d6d6d" stroke="#6d6d6d" stroke-width="1" d="M0,85.8L3,80.6C2.1,81.1,1.1,81.4,0,81.4C-1.1,81.4,-2.1,81.1,-3,80.6L0,85.8"/></g><g transform="translate(247.79,1285.49)"><g id="shape15"><path fill="#000000" fill-opacity="0.08" d="M244.6,96.2L244.6,2L2,2L2,96.2L244.6,96.2z"/><path fill="url(#lg1)" stroke="#6d6d6d" d="M242.6,94.2L242.6,0L0,0L0,94.2L242.6,94.2z"/></g><text class="st1"><tspan x="21.3" y="54.1">BeanDeFinitionReader</tspan></text></g><g id="shape16" transform="translate(247.79,1332.59)"><path fill="none" stroke="#6d6d6d" d="M0,0L-121.3,0L-121.3,118.8"/><path stroke-linecap="round" fill="#6d6d6d" stroke="#6d6d6d" stroke-width="1" d="M-121.3,123.2L-118.3,118C-119.2,118.5,-120.2,118.8,-121.3,118.8C-122.4,118.8,-123.4,118.5,-124.3,118L-121.3,123.2"/></g><g transform="translate(5.22,1455.81)"><g id="shape17"><path fill="#000000" fill-opacity="0.08" d="M244.6,96.2L244.6,2L2,2L2,96.2L244.6,96.2z"/><path fill="url(#lg1)" stroke="#6d6d6d" d="M242.6,94.2L242.6,0L0,0L0,94.2L242.6,94.2z"/></g><text class="st1"><tspan x="11.3" y="54.1">BeanDeFinitionRegister</tspan></text></g><g id="shape18" transform="translate(490.37,1332.59)"><path fill="none" stroke="#6d6d6d" d="M0,0L183.2,0L183.2,118.8"/><path stroke-linecap="round" fill="#6d6d6d" stroke="#6d6d6d" stroke-width="1" d="M183.2,123.2L186.2,118C185.3,118.5,184.3,118.8,183.2,118.8C182.1,118.8,181.1,118.5,180.2,118L183.2,123.2"/></g><g transform="translate(552.3,1455.81)"><g id="shape19"><path fill="#000000" fill-opacity="0.08" d="M244.6,96.2L244.6,2L2,2L2,96.2L244.6,96.2z"/><path fill="url(#lg1)" stroke="#6d6d6d" d="M242.6,94.2L242.6,0L0,0L0,94.2L242.6,94.2z"/></g><text class="st1"><tspan x="11.3" y="54.1">PropertyEditorRegister</tspan></text></g><g transform="translate(444.41,478.1)"><g id="shape20"><path fill="#000000" fill-opacity="0.08" d="M249,33L249,2L2,2L2,33L249,33z"/><path fill="url(#lg1)" stroke="#6d6d6d" d="M247,31L247,0L0,0L0,31L247,31z"/></g><text class="st1"><tspan x="19" y="22.5">InstantiationStrategy</tspan></text></g><g transform="translate(113.06,336.81)"><path fill="#000000" fill-opacity="0.08" d="M2,2L362,2L362,31.7L2,31.7L2,2zM352.1,2L267.2,2L309.7,10L352.1,2z"/><path id="shape21" fill="url(#lg1)" stroke="#6d6d6d" d="M0,0L360,0L360,29.7L0,29.7L0,0z"/><path id="shape22" fill="#ffffff" stroke="#ffffff" transform="translate(265.23,0)" d="M0,0L84.9,0L42.5,8L0,0z"/><text class="st2"><tspan x="15.5" y="21.8">postProcessBeforeInstantiation</tspan></text></g><g transform="translate(113.06,552.57)"><path fill="#000000" fill-opacity="0.08" d="M2,2L370.4,2L370.4,28.9L2,28.9L2,2zM360.3,2L273.4,2L316.9,9.2L360.3,2z"/><path id="shape23" fill="url(#lg3)" stroke="#8c3836" d="M0,0L368.4,0L368.4,26.9L0,26.9L0,0z"/><path id="shape24" fill="#ffffff" stroke="#ffffff" transform="translate(271.44,0)" d="M0,0L86.9,0L43.5,7.2L0,0z"/><text class="st2"><tspan x="25.2" y="20.4">postProcessAfterInstantiation</tspan></text></g><g transform="translate(113.06,581.11)"><path fill="#000000" fill-opacity="0.08" d="M2,2L370.4,2L370.4,24.7L2,24.7L2,2zM360.3,2L273.4,2L316.9,8.1L360.3,2z"/><path id="shape25" fill="url(#lg4)" stroke="#71893f" d="M0,0L368.4,0L368.4,22.7L0,22.7L0,0z"/><path id="shape26" fill="#ffffff" stroke="#ffffff" transform="translate(271.44,0)" d="M0,0L86.9,0L43.5,6.1L0,0z"/><text class="st2"><tspan x="47.2" y="18.4">postProcessPropertyValues</tspan></text></g><g id="shape27" transform="translate(202.5,410.36)"><path fill="none" stroke="#6d6d6d" d="M0,0L0,-40.6L351.3,-40.6"/><path stroke-linecap="round" fill="#6d6d6d" stroke="#6d6d6d" stroke-width="1" d="M355.7,-40.6L350.5,-43.6C351,-42.8,351.3,-41.7,351.3,-40.6C351.3,-39.6,351,-38.5,350.5,-37.6L355.7,-40.6"/></g><g id="shape28" transform="translate(202.5,468.42)"><path fill="none" stroke="#6d6d6d" d="M0,0L0,78.1L354.5,78.1"/><path stroke-linecap="round" fill="#6d6d6d" stroke="#6d6d6d" stroke-width="1" d="M358.9,78.1L353.7,75.1C354.2,75.9,354.5,77,354.5,78.1C354.5,79.2,354.2,80.2,353.7,81.1L358.9,78.1"/></g><g id="shape29" transform="translate(190.35,796.28)"><path fill="none" stroke="#6d6d6d" d="M0,0L0,-95.4L370.3,-95.4"/><path stroke-linecap="round" fill="#6d6d6d" stroke="#6d6d6d" stroke-width="1" d="M374.6,-95.4L369.5,-98.4C370,-97.6,370.3,-96.5,370.3,-95.4C370.3,-94.4,370,-93.3,369.5,-92.4L374.6,-95.4"/></g><g id="shape30" transform="translate(567.94,871.12)"><path fill="none" stroke="#6d6d6d" d="M0,0L0,55.6"/><path stroke-linecap="round" fill="#6d6d6d" stroke="#6d6d6d" stroke-width="1" d="M0,60L3,54.8C2.1,55.3,1.1,55.6,0,55.6C-1.1,55.6,-2.1,55.3,-3,54.8L0,60"/></g><g transform="translate(480.87,931.12)"><g id="shape31"><path fill="#000000" fill-opacity="0.08" d="M30,58L148.1,58C163.6,58,176.1,45.5,176.1,30C176.1,14.5,163.6,2,148.1,2L30,2C14.5,2,2,14.5,2,30C2,45.5,14.5,58,30,58z"/><path fill="url(#lg1)" stroke="#6d6d6d" d="M28,56L146.1,56C161.6,56,174.1,43.5,174.1,28C174.1,12.5,161.6,0,146.1,0L28,0C12.5,0,0,12.5,0,28C0,43.5,12.5,56,28,56z"/></g><text class="st3"><tspan x="74.1" y="32.5">完成</tspan></text></g><g id="shape32" transform="translate(190.35,854.34)"><path fill="none" stroke="#6d6d6d" d="M0,0L0,104.8L286.1,104.8"/><path stroke-linecap="round" fill="#6d6d6d" stroke="#6d6d6d" stroke-width="1" d="M290.5,104.8L285.3,101.8C285.8,102.7,286.1,103.7,286.1,104.8C286.1,105.9,285.8,106.9,285.3,107.8L290.5,104.8"/></g><g transform="translate(113.06,661.51)"><g id="shape33"><path fill="#000000" fill-opacity="0.08" d="M318,33L318,2L2,2L2,33L318,33z"/><path fill="url(#lg1)" stroke="#6d6d6d" d="M316,31L316,0L0,0L0,31L316,31z"/></g><text class="st1"><tspan x="8" y="22.5">postProcessAfterInitialization</tspan></text></g><g id="shape34" transform="translate(567.94,509.06)"><path fill="none" stroke="#6d6d6d" d="M0,0L0,282.8"/><path stroke-linecap="round" fill="#6d6d6d" stroke="#6d6d6d" stroke-width="1" d="M0,287.2L3,282C2.1,282.5,1.1,282.8,0,282.8C-1.1,282.8,-2.1,282.5,-3,282L0,287.2"/></g><g transform="translate(443.73,401.97)"><g id="shape35"><path fill="#000000" fill-opacity="0.08" d="M250.4,76.8L250.4,2L2,2L2,76.8L250.4,76.8z"/><path fill="url(#lg1)" stroke="#6d6d6d" d="M248.4,74.8L248.4,0L0,0L0,74.8L248.4,74.8z"/></g><text class="st1"><tspan x="21.2" y="44.4">实例化：Instantiation</tspan></text></g></g></svg>