<svg height="3185" xmlns:xlink="http://www.w3.org/1999/xlink" xmlns="http://www.w3.org/2000/svg" viewBox="0 0 1132 3185" xmlns:ev="http://www.w3.org/2001/xml-events" width="1132"><style type="text/css"><![CDATA[
.st12 {fill:#1f6391;font-family:宋体;font-size:12pt}
.st9 {fill:#1f6391;font-family:宋体;font-size:14pt}
.st3 {fill:#344961;font-family:宋体;font-size:12pt}
.st5 {fill:#344961;font-family:宋体;font-size:13pt}
.st1 {fill:#344961;font-family:宋体;font-size:14pt}
.st11 {fill:#ff0000;font-family:宋体;font-size:10pt}
.st8 {fill:#ff0000;font-family:宋体;font-size:14pt;font-weight:bold}
.st10 {fill:#ff0000;font-weight:bold}
.st6 {fill:#ff0000}
.st2 {fill:#ffffff;font-family:宋体;font-size:10pt;font-weight:bold}
.st13 {fill:#ffffff;font-family:宋体;font-size:14pt;font-weight:bold}
.st7 {fill:#ffffff;font-family:宋体;font-size:14pt}
.st4 {font-weight:bold}
]]></style><defs/><g transform="translate(5,5)" id="page1"><rect height="3175" fill="#ffffff" stroke="#808080" y="0" x="0" width="1123"/><g transform="translate(372.09,324.5)"><path fill="#ffffff" stroke="#8d9cb1" d="M371.5,58L371.5,0L0,0L0,58L371.5,58z" id="shape1"/><text class="st1"><tspan y="36" x="83.2">启动类注入BeanFactory</tspan></text></g><g transform="translate(557.83,324.5)" id="shape2"><path stroke="#236ea1" fill="none" d="M0,0L0,-54.6"/><path fill="#236ea1" stroke="#236ea1" stroke-linecap="round" stroke-width="1" d="M0,-59L-3,-53.8C-2.1,-54.3,-1.1,-54.6,0,-54.6C1.1,-54.6,2.1,-54.3,3,-53.8L0,-59"/></g><g transform="translate(372.09,470.5)" id="shape3"><path stroke="#236ea1" fill="none" d="M0,0L-184.4,0L-184.4,118.1"/><path fill="#236ea1" stroke="#236ea1" stroke-linecap="round" stroke-width="1" d="M-184.4,122.5L-181.4,117.3C-182.2,117.8,-183.3,118.1,-184.4,118.1C-185.4,118.1,-186.5,117.8,-187.4,117.3L-184.4,122.5"/></g><g transform="translate(376.44,209.5)"><path fill="#ffaf00" stroke="#ffaf00" d="M28,56L334.8,56C350.2,56,362.8,43.5,362.8,28C362.8,12.5,350.2,0,334.8,0L28,0C12.5,0,0,12.5,0,28C0,43.5,12.5,56,28,56z" id="shape4"/><text class="st2"><tspan y="32.5" x="167.4">开始</tspan></text></g><g transform="translate(775.48,209.5)"><path fill="#ffffff" stroke="#8d9cb1" d="M337,56L337,0L0,0L0,56L337,56z" id="shape5"/><text class="st3"><tspan y="25" x="4">SpringApplication.run(</tspan><tspan class="st4">SpringLearnMain</tspan><tspan>.c</tspan><tspan y="43" x="4">lass,args);//提供启动component类</tspan></text></g><g transform="translate(739.22,237.5)" id="shape6"><path stroke="#236ea1" fill="none" d="M0,0L31.9,0"/><path fill="#236ea1" stroke="#236ea1" stroke-linecap="round" stroke-width="1" d="M36.3,0L31.1,-3C31.6,-2.1,31.9,-1.1,31.9,0C31.9,1.1,31.6,2.1,31.1,3L36.3,0"/></g><g transform="translate(743.57,353.5)" id="shape7"><path stroke="#236ea1" fill="none" d="M0,0L27.5,0"/><path fill="#236ea1" stroke="#236ea1" stroke-linecap="round" stroke-width="1" d="M31.9,0L26.7,-3C27.2,-2.1,27.5,-1.1,27.5,0C27.5,1.1,27.2,2.1,26.7,3L31.9,0"/></g><g transform="translate(775.48,324.5)"><path fill="#ffffff" stroke="#8d9cb1" d="M337,58L337,0L0,0L0,58L337,58z" id="shape8"/><text class="st5"><tspan class="st6" y="26" x="4">SpringApplication#prepareContext()</tspan><tspan>--</tspan><tspan y="45" x="4">->SpringApplication#load()</tspan></text></g><g transform="translate(134.73,61)"><path fill="#ffffff" stroke="#8d9cb1" d="M197.9,56L197.9,0L0,0L0,56L197.9,56z" id="shape9"/><text class="st1"><tspan y="35" x="14.4">SpringApplication</tspan></text></g><g transform="translate(458.9,61)"><path fill="#ffffff" stroke="#8d9cb1" d="M197.9,56L197.9,0L0,0L0,56L197.9,56z" id="shape10"/><text class="st1"><tspan y="35" x="9.4">ApplicationContext</tspan></text></g><g transform="translate(783.06,61)"><path fill="#ffffff" stroke="#8d9cb1" d="M197.9,56L197.9,0L0,0L0,56L197.9,56z" id="shape11"/><text class="st1"><tspan y="35" x="44.4">BeanFactory</tspan></text></g><g transform="translate(332.6,89)" id="shape12"><path stroke="#8d9cb1" fill="none" d="M0,0L126.3,0"/><rect height="22" fill="#ffffff" y="-11" x="44.3" width="38.8"/><text class="st1"><tspan y="7" x="44.1">装配</tspan></text></g><g transform="translate(656.76,89)" id="shape13"><path stroke="#8d9cb1" fill="none" d="M0,0L126.3,0"/><rect height="22" fill="#ffffff" y="-11" x="44.3" width="38.8"/><text class="st1"><tspan y="7" x="44.1">调用</tspan></text></g><g transform="translate(730.43,621)" id="shape14"><path stroke="#236ea1" fill="none" d="M0,0L2.6,0L2.6,-14.5L2.6,-14.5"/><path fill="#236ea1" stroke="#236ea1" stroke-linecap="round" stroke-width="1" d="M6.6,-14.5L1.4,-17.5C1.9,-16.6,2.2,-15.6,2.2,-14.5C2.2,-13.4,1.9,-12.4,1.4,-11.5L6.6,-14.5"/></g><g transform="translate(737,510)"><path fill="#ffffff" stroke="#8d9cb1" d="M382,193L382,0L0,0L0,193L382,193z" id="shape15"/><text class="st5"><tspan class="st6" y="36.5" x="4.5">1)SpringApplication#refreshContext()</tspan><tspan y="55.5" x="4.5">2)AnnotationConfigServletWebServerApplica</tspan><tspan y="74.5" x="4.5">tionContext#refresh()</tspan><tspan class="st6" y="93.5" x="4.5">3)AbstractApplicationContext#refresh()</tspan><tspan class="st6" y="112.5" x="4.5">4)AbstractApplicationContext#invokeBeanFa</tspan><tspan class="st6" y="131.5" x="4.5">ctoryPostProcessors()</tspan><tspan y="150.5" x="4.5">5)区分BeanDefinitionRegistryPostProcessor</tspan><tspan y="169.5" x="4.5">6)及BeanFactoryPostProcessor</tspan></text></g><g transform="translate(5,593)"><path fill="#7eccb6" stroke="#7eccb6" d="M365.5,56L365.5,0L0,0L0,56L365.5,56z" id="shape16"/><text class="st7"><tspan y="35" x="63.2">BeanFactoryPostProcessor</tspan></text></g><g transform="translate(557.83,649)" id="shape17"><path stroke="#236ea1" fill="none" d="M0,0L0,55.6"/><path fill="#236ea1" stroke="#236ea1" stroke-linecap="round" stroke-width="1" d="M0,60L3,54.8C2.1,55.3,1.1,55.6,0,55.6C-1.1,55.6,-2.1,55.3,-3,54.8L0,60"/></g><g transform="translate(372.09,709)"><path fill="#ffffff" stroke="#8d9cb1" d="M371.5,56L371.5,0L0,0L0,56L371.5,56z" id="shape18"/><text class="st8"><tspan y="35" x="15.2">ConfigurationClassPostProcessor</tspan></text></g><g transform="translate(504.24,1965)" id="shape19"><path stroke="#236ea1" fill="none" d="M0,0L0,48L326.8,48L326.8,118.6"/><path fill="#236ea1" stroke="#236ea1" stroke-linecap="round" stroke-width="1" d="M326.8,123L329.8,117.8C328.9,118.3,327.9,118.6,326.8,118.6C325.7,118.6,324.6,118.3,323.8,117.8L326.8,123"/><rect height="22" fill="#ffffff" y="92" x="306.8" width="38.8"/><text class="st9"><tspan y="110" x="306.8">注册</tspan></text></g><g transform="translate(85.91,2247)"><path fill="#ffffff" stroke="#8d9cb1" d="M407.5,172L407.5,0L0,0L0,172L407.5,172z" id="shape20"/><text class="st1"><tspan y="38" x="4.3">@PropertySource</tspan><tspan y="60" x="4.3">@ComponentScan</tspan><tspan y="82" x="4.3">@Import</tspan><tspan y="104" x="4.3">@ImportResource</tspan><tspan y="126" x="4.3">@Bean</tspan><tspan y="148" x="4.3">ConfigurationClass.addBeanMethod()</tspan></text></g><g transform="translate(289.68,2419)" id="shape21"><path stroke="#236ea1" fill="none" d="M0,0L0,27.6"/><path fill="#236ea1" stroke="#236ea1" stroke-linecap="round" stroke-width="1" d="M0,32L3,26.8C2.1,27.3,1.1,27.6,0,27.6C-1.1,27.6,-2.1,27.3,-3,26.8L0,32"/></g><g transform="translate(85.91,2451)"><path fill="#ffffff" stroke="#8d9cb1" d="M407.5,106L407.5,0L0,0L0,106L407.5,106z" id="shape22"/><text class="st1"><tspan y="27" x="4.3">@ComponentScan</tspan><tspan y="49" x="4.3">1)ConfigurationClassParser#parse()</tspan><tspan y="71" x="4.3">1)ComponentScanAnnotationParser#parse</tspan><tspan y="93" x="4.3">2)ClassPathBeanDefinitionScanner()</tspan></text></g><g transform="translate(527,2451)"><path fill="#ffffff" stroke="#8d9cb1" d="M534.5,140L534.5,0L0,0L0,140L534.5,140z" id="shape23"/><text class="st1"><tspan y="44" x="4.3">执行processDeferredImportSelectors()</tspan><tspan y="66" x="4.3">处理DeferredImportSelector接口类</tspan><tspan y="88" x="4.3">如AutoConfigurationImportSelector（</tspan><tspan class="st10">自动装配</tspan><tspan>）</tspan><tspan class="st10" y="110" x="4.3">分AutoConfigurationImportSelector#selectImports</tspan></text></g><g transform="translate(630.25,2181)"><path fill="#ffffff" stroke="#8d9cb1" d="M401.5,106L401.5,0L0,0L0,106L401.5,106z" id="shape24"/><text class="st1"><tspan y="49" x="4.3">ConfigurationClassBeanDefinitionReader#</tspan><tspan y="71" x="4.3">loadBeanDefinitions</tspan></text></g><g transform="translate(557.83,765)" id="shape25"><path stroke="#236ea1" fill="none" d="M0,0L0,55.6"/><path fill="#236ea1" stroke="#236ea1" stroke-linecap="round" stroke-width="1" d="M0,60L3,54.8C2.1,55.3,1.1,55.6,0,55.6C-1.1,55.6,-2.1,55.3,-3,54.8L0,60"/></g><g transform="translate(372.09,825)"><path fill="#ffffff" stroke="#8d9cb1" d="M371.5,56L371.5,0L0,0L0,56L371.5,56z" id="shape26"/><text class="st1"><tspan y="35" x="16.2">ConfigurationWarningsPostProcessor</tspan></text></g><g transform="translate(557.83,881)" id="shape27"><path stroke="#236ea1" fill="none" d="M0,0L0,55.6"/><path fill="#236ea1" stroke="#236ea1" stroke-linecap="round" stroke-width="1" d="M0,60L3,54.8C2.1,55.3,1.1,55.6,0,55.6C-1.1,55.6,-2.1,55.3,-3,54.8L0,60"/></g><g transform="translate(372.09,941)"><path fill="#ffffff" stroke="#8d9cb1" d="M371.5,56L371.5,0L0,0L0,56L371.5,56z" id="shape28"/><text class="st1"><tspan y="24" x="6.2">CachingMetadataReaderFactoryPostProc</tspan><tspan y="46" x="161.2">essor</tspan></text></g><g transform="translate(557.83,997)" id="shape29"><path stroke="#236ea1" fill="none" d="M0,0L0,55.6"/><path fill="#236ea1" stroke="#236ea1" stroke-linecap="round" stroke-width="1" d="M0,60L3,54.8C2.1,55.3,1.1,55.6,0,55.6C-1.1,55.6,-2.1,55.3,-3,54.8L0,60"/></g><g transform="translate(372.09,1057)"><path fill="#ffffff" stroke="#8d9cb1" d="M371.5,56L371.5,0L0,0L0,56L371.5,56z" id="shape30"/><text class="st1"><tspan y="35" x="71.2">MapperScannerConfigurer</tspan></text></g><g transform="translate(743.57,1085)" id="shape31"><path stroke="#236ea1" fill="none" d="M0,0L58.2,0"/><path fill="#236ea1" stroke="#236ea1" stroke-linecap="round" stroke-width="1" d="M62.6,0L57.4,-3C57.9,-2.1,58.2,-1.1,58.2,0C58.2,1.1,57.9,2.1,57.4,3L62.6,0"/></g><g transform="translate(806.18,1057)"><path fill="#ffffff" stroke="#8d9cb1" d="M257.3,56L257.3,0L0,0L0,56L257.3,56z" id="shape32"/><text class="st1"><tspan y="35" x="75.1">MyBatis支持</tspan></text></g><g transform="translate(372.09,593)"><path fill="#f2a282" stroke="#f2a282" d="M358.3,56L358.3,0L0,0L0,56L358.3,56z" id="shape33"/><text class="st7"><tspan y="35" x="4.2">BeanDefinitionRegistryPostProcessor</tspan></text></g><g transform="translate(187.74,649)" id="shape34"><path stroke="#236ea1" fill="none" d="M0,0L0,55.6"/><path fill="#236ea1" stroke="#236ea1" stroke-linecap="round" stroke-width="1" d="M0,60L3,54.8C2.1,55.3,1.1,55.6,0,55.6C-1.1,55.6,-2.1,55.3,-3,54.8L0,60"/></g><g transform="translate(5,709)"><path fill="#ffffff" stroke="#8d9cb1" d="M365.5,56L365.5,0L0,0L0,56L365.5,56z" id="shape35"/><text class="st1"><tspan y="35" x="4.2">PropertySourceOrderingPostProcessor</tspan></text></g><g transform="translate(58.48,1182)"><path fill="#ffffff" stroke="#8d9cb1" d="M595,56L595,0L0,0L0,56L595,56z" id="shape36"/><text class="st1"><tspan y="35" x="123">BeanDefinitionRegistryPostProcessor</tspan></text></g><g transform="translate(187.74,765)" id="shape37"><path stroke="#236ea1" fill="none" d="M0,0L0,385L168.2,385L168.2,412.6"/><path fill="#236ea1" stroke="#236ea1" stroke-linecap="round" stroke-width="1" d="M168.2,417L171.2,411.8C170.4,412.3,169.3,412.6,168.2,412.6C167.1,412.6,166.1,412.3,165.2,411.8L168.2,417"/><rect height="15" fill="#ffffff" y="389.5" x="116.4" width="106.3"/><text class="st11"><tspan y="401.5" x="116.2">再次查找，并执行</tspan></text></g><g transform="translate(557.83,1113)" id="shape38"><path stroke="#236ea1" fill="none" d="M0,0L0,37L-197.5,37"/><path fill="#236ea1" stroke="#236ea1" stroke-linecap="round" stroke-width="1" d="M-201.9,37L-196.7,40C-197.2,39.1,-197.5,38.1,-197.5,37C-197.5,35.9,-197.2,34.9,-196.7,34L-201.9,37"/></g><g transform="translate(355.98,1238)" id="shape39"><path stroke="#236ea1" fill="none" d="M0,0L0,28L-189,28L-189,55.6"/><path fill="#236ea1" stroke="#236ea1" stroke-linecap="round" stroke-width="1" d="M-189,60L-186,54.8C-186.9,55.3,-187.9,55.6,-189,55.6C-190.1,55.6,-191.1,55.3,-192,54.8L-189,60"/><rect height="18" fill="#ffffff" y="31" x="-208.9" width="40.9"/><text class="st12"><tspan y="46" x="-209">First</tspan></text></g><g transform="translate(58.48,1298)"><path fill="#ffffff" stroke="#8d9cb1" d="M217,56L217,0L0,0L0,56L217,56z" id="shape40"/><text class="st1"><tspan y="35" x="34">PriorityOrdered</tspan></text></g><g transform="translate(355.98,1238)" id="shape41"><path stroke="#236ea1" fill="none" d="M0,0L0,28L87.8,28L87.8,55.6"/><path fill="#236ea1" stroke="#236ea1" stroke-linecap="round" stroke-width="1" d="M87.8,60L90.8,54.8C89.9,55.3,88.8,55.6,87.8,55.6C86.7,55.6,85.6,55.3,84.8,54.8L87.8,60"/><rect height="18" fill="#ffffff" y="31" x="71.9" width="32.7"/><text class="st12"><tspan y="46" x="71.8">Next</tspan></text></g><g transform="translate(289.98,1298)"><path fill="#ffffff" stroke="#8d9cb1" d="M307.5,56L307.5,0L0,0L0,56L307.5,56z" id="shape42"/><text class="st1"><tspan y="35" x="119.3">Ordered</tspan></text></g><g transform="translate(355.98,1238)" id="shape43"><path stroke="#236ea1" fill="none" d="M0,0L0,28L402.5,28L402.5,55.6"/><path fill="#236ea1" stroke="#236ea1" stroke-linecap="round" stroke-width="1" d="M402.5,60L405.5,54.8C404.6,55.3,403.6,55.6,402.5,55.6C401.4,55.6,400.4,55.3,399.5,54.8L402.5,60"/><rect height="18" fill="#ffffff" y="31" x="374.6" width="57.2"/><text class="st12"><tspan y="46" x="374.5">Finally</tspan></text></g><g transform="translate(617.48,1298)"><path fill="#ffffff" stroke="#8d9cb1" d="M282,56L282,0L0,0L0,56L282,56z" id="shape44"/><text class="st1"><tspan y="35" x="82">其他the rest</tspan></text></g><g transform="translate(166.98,1354)" id="shape45"><path stroke="#236ea1" fill="none" d="M0,0L0,27L28,27L28,54.6"/><path fill="#236ea1" stroke="#236ea1" stroke-linecap="round" stroke-width="1" d="M28,59L31,53.8C30.1,54.3,29.1,54.6,28,54.6C26.9,54.6,25.9,54.3,25,53.8L28,59"/></g><g transform="translate(5.48,1413)"><path fill="#ffffff" stroke="#8d9cb1" d="M379,56L379,0L0,0L0,56L379,56z" id="shape46"/><text class="st1"><tspan y="35" x="10">PropertySourcesPlaceholderConfigurer</tspan></text></g><g transform="translate(591.48,1404)"><path fill="#ffffff" stroke="#8d9cb1" d="M334,56L334,0L0,0L0,56L334,56z" id="shape47"/><text class="st1"><tspan y="35" x="7">ConfigurationBeanFactoryMetadata</tspan></text></g><g transform="translate(758.48,1354)" id="shape48"><path stroke="#236ea1" fill="none" d="M0,0L0,45.6"/><path fill="#236ea1" stroke="#236ea1" stroke-linecap="round" stroke-width="1" d="M0,50L3,44.8C2.1,45.3,1.1,45.6,0,45.6C-1.1,45.6,-2.1,45.3,-3,44.8L0,50"/></g><g transform="translate(758.48,1460)" id="shape49"><path stroke="#236ea1" fill="none" d="M0,0L0,55.6"/><path fill="#236ea1" stroke="#236ea1" stroke-linecap="round" stroke-width="1" d="M0,60L3,54.8C2.1,55.3,1.1,55.6,0,55.6C-1.1,55.6,-2.1,55.3,-3,54.8L0,60"/></g><g transform="translate(591.48,1520)"><path fill="#ffffff" stroke="#8d9cb1" d="M334,56L334,0L0,0L0,56L334,56z" id="shape50"/><text class="st1"><tspan y="24" x="7">PreserveErrorControllerTargetCla</tspan><tspan y="46" x="92">ssPostProcessor</tspan></text></g><g transform="translate(194.98,1469)" id="shape51"><path stroke="#236ea1" fill="none" d="M0,0L0,171L299,171L299,198.6"/><path fill="#236ea1" stroke="#236ea1" stroke-linecap="round" stroke-width="1" d="M299,203L302,197.8C301.1,198.3,300.1,198.6,299,198.6C297.9,198.6,296.9,198.3,296,197.8L299,203"/></g><g transform="translate(304.48,1672)"><path fill="#ffffff" stroke="#8d9cb1" d="M379,56L379,0L0,0L0,56L379,56z" id="shape52"/><text class="st1"><tspan y="24" x="133">判断是否添加</tspan><tspan y="46" x="50">LoadTimeWeaverAwareProcessor</tspan></text></g><g transform="translate(758.48,1576)" id="shape53"><path stroke="#236ea1" fill="none" d="M0,0L0,64L-264.5,64L-264.5,91.6"/><path fill="#236ea1" stroke="#236ea1" stroke-linecap="round" stroke-width="1" d="M-264.5,96L-261.5,90.8C-262.4,91.3,-263.4,91.6,-264.5,91.6C-265.6,91.6,-266.6,91.3,-267.5,90.8L-264.5,96"/></g><g transform="translate(372.09,441.5)"><path fill="#ffffff" stroke="#8d9cb1" d="M371.5,58L371.5,0L0,0L0,58L371.5,58z" id="shape54"/><text class="st1"><tspan y="36" x="25.2">扫描/生成/注册/解析BeanDefinition</tspan></text></g><g transform="translate(557.83,382.5)" id="shape55"><path stroke="#236ea1" fill="none" d="M0,0L-0,54.6"/><path fill="#236ea1" stroke="#236ea1" stroke-linecap="round" stroke-width="1" d="M-0,59L3,53.8C2.1,54.3,1.1,54.6,-0,54.6C-1.1,54.6,-2.1,54.3,-3,53.8L-0,59"/></g><g transform="translate(557.83,499.5)" id="shape56"><path stroke="#236ea1" fill="none" d="M0,0L0,61.5L0,89.1"/><path fill="#236ea1" stroke="#236ea1" stroke-linecap="round" stroke-width="1" d="M0,93.5L3,88.3C2.1,88.8,1.1,89.1,0,89.1C-1.1,89.1,-2.1,88.8,-3,88.3L0,93.5"/></g><g transform="translate(22.89,11)"><path fill="#dd7195" stroke="#dd7195" d="M0,31.5L0,0L601.1,0L601.1,31.5C501,25.5,400.7,25.5,300.6,31.5C200.5,37.5,100.1,37.5,0,31.5z" id="shape57"/><text class="st7"><tspan y="25" x="11.1">AbstractApplicationContext#invokeBeanFactoryPostProcessors</tspan></text></g><g transform="translate(493.98,1728)" id="shape58"><path stroke="#236ea1" fill="none" d="M0,0L0,55.6"/><path fill="#236ea1" stroke="#236ea1" stroke-linecap="round" stroke-width="1" d="M0,60L3,54.8C2.1,55.3,1.1,55.6,0,55.6C-1.1,55.6,-2.1,55.3,-3,54.8L0,60"/></g><g transform="translate(304.48,1788)"><path fill="#ffaf00" stroke="#ffaf00" d="M28,56L351,56C366.5,56,379,43.5,379,28C379,12.5,366.5,0,351,0L28,0C12.5,0,0,12.5,0,28C0,43.5,12.5,56,28,56z" id="shape59"/><text class="st13"><tspan y="35" x="170">结束</tspan></text></g><g transform="translate(318.5,1909)"><path fill="#ffffff" stroke="#8d9cb1" d="M371.5,56L371.5,0L0,0L0,56L371.5,56z" id="shape60"/><text class="st8"><tspan y="35" x="15.2">ConfigurationClassPostProcessor</tspan></text></g><g transform="translate(734.5,1880)"><path fill="#ffffff" stroke="#8d9cb1" d="M327,114L327,0L0,0L0,114L327,114z" id="shape61"/><text class="st1"><tspan y="31" x="4">@Configuration，则Full</tspan><tspan y="53" x="4">@Component、@ComponentScan、</tspan><tspan y="75" x="4">@Import、@ImportResource;@Bean,</tspan><tspan y="97" x="4">则Lite</tspan></text></g><g transform="translate(689.98,1937)" id="shape62"><path stroke="#236ea1" fill="none" d="M0,0L40.1,0"/><path fill="#236ea1" stroke="#236ea1" stroke-linecap="round" stroke-width="1" d="M44.5,0L39.3,-3C39.8,-2.1,40.1,-1.1,40.1,0C40.1,1.1,39.8,2.1,39.3,3L44.5,0"/></g><g transform="translate(85.91,2089)"><path fill="#7eccb6" stroke="#8d9cb1" d="M407.5,57L407.5,0L0,0L0,57L407.5,57z" id="shape63"/><text class="st1"><tspan y="35.5" x="84.3">ConfigurationClassParser</tspan></text></g><g transform="translate(629.75,2088)"><path fill="#ffc37c" stroke="#8d9cb1" d="M402.5,58L402.5,0L0,0L0,58L402.5,58z" id="shape64"/><text class="st1"><tspan y="36" x="4.3">ConfigurationClassBeanDefinitionReader</tspan></text></g><g transform="translate(504.24,1965)" id="shape65"><path stroke="#236ea1" fill="none" d="M0,0L0,48L-214.6,48L-214.6,119.6"/><path fill="#236ea1" stroke="#236ea1" stroke-linecap="round" stroke-width="1" d="M-214.6,124L-211.6,118.8C-212.4,119.3,-213.5,119.6,-214.6,119.6C-215.6,119.6,-216.7,119.3,-217.6,118.8L-214.6,124"/><rect height="22" fill="#ffffff" y="93" x="-233.4" width="38.8"/><text class="st9"><tspan y="111" x="-233.6">解析</tspan></text></g><g transform="translate(289.68,2146)" id="shape66"><path stroke="#236ea1" fill="none" d="M0,0L-0,96.6"/><path fill="#236ea1" stroke="#236ea1" stroke-linecap="round" stroke-width="1" d="M-0,101L3,95.8C2.1,96.3,1.1,96.6,-0,96.6C-1.1,96.6,-2.1,96.3,-3,95.8L-0,101"/><rect height="18" fill="#ffffff" y="11" x="-23.9" width="49.1"/><text class="st12"><tspan y="26" x="-24">先处理</tspan></text></g><g transform="translate(831,2146)" id="shape67"><path stroke="#236ea1" fill="none" d="M0,0L0,30.6"/><path fill="#236ea1" stroke="#236ea1" stroke-linecap="round" stroke-width="1" d="M0,35L3,29.8C2.1,30.3,1.1,30.6,0,30.6C-1.1,30.6,-2.1,30.3,-3,29.8L0,35"/></g><g transform="translate(493.46,2117.5)" id="shape68"><path stroke="#236ea1" fill="none" d="M0,0L82.5,0L82.5,301.5L300.8,301.5L300.8,329.1"/><path fill="#236ea1" stroke="#236ea1" stroke-linecap="round" stroke-width="1" d="M300.8,333.5L303.8,328.3C302.9,328.8,301.9,329.1,300.8,329.1C299.7,329.1,298.7,328.8,297.8,328.3L300.8,333.5"/><rect height="22" fill="#ffffff" y="223.6" x="54.2" width="58.3"/><text class="st9"><tspan y="241.6" x="54">后处理</tspan></text></g><g transform="translate(775.48,709)"><path fill="#3498db" stroke="#3498db" d="M330.5,56L330.5,0L0,0L0,56L330.5,56z" id="shape69"/><text class="st7"><tspan y="35" x="29.3">完成BeanDefinition扫描及注册</tspan></text></g><g transform="translate(743.57,737)" id="shape70"><path stroke="#236ea1" fill="none" d="M0,0L27.5,0"/><path fill="#236ea1" stroke="#236ea1" stroke-linecap="round" stroke-width="1" d="M31.9,0L26.7,-3C27.2,-2.1,27.5,-1.1,27.5,0C27.5,1.1,27.2,2.1,26.7,3L31.9,0"/></g><g transform="translate(196.48,1474)"><path fill="#3498db" stroke="#3498db" d="M0,32.4L0,0L188,0L188,32.4C157,26.2,125,26.2,94,32.4C63,38.5,31,38.5,0,32.4z" id="shape71"/><text class="st7"><tspan y="25.5" x="60">处理${}</tspan></text></g></g></svg>